<svg width="112" height="48" viewBox="0 0 112 48" fill="none" xmlns="http://www.w3.org/2000/svg">
<path fill-rule="evenodd" clip-rule="evenodd" d="M111.6 4C111.6 1.79086 109.809 0 107.6 0H4C1.79086 0 0 1.79086 0 4V44C0 46.2091 1.79085 48 3.99999 48H107.6C109.809 48 111.6 46.2091 111.6 44V4ZM76.5342 31.9559C76.5342 31.9096 76.4966 31.872 76.4503 31.872V31.872C76.4126 31.872 76.3797 31.8971 76.369 31.9332C76.2503 32.3325 76.0693 32.7137 75.8259 33.0767C75.5701 33.4381 75.2553 33.7594 74.8814 34.0405C74.5272 34.3015 74.114 34.5023 73.6418 34.6428C73.1893 34.8035 72.717 34.8838 72.2251 34.8838C70.2575 34.8838 68.772 34.181 67.7685 32.7755C66.765 31.35 66.2633 29.2919 66.2633 26.6014C66.2633 23.9109 66.765 21.8629 67.7685 20.4574C68.772 19.0519 70.2575 18.3492 72.2251 18.3492C73.2286 18.3492 74.114 18.6303 74.8814 19.1925C75.6497 19.7413 76.1461 20.4431 76.3707 21.298C76.3803 21.3349 76.4134 21.361 76.4515 21.361V21.361C76.4972 21.361 76.5342 21.3239 76.5342 21.2783V14.4194C76.5342 13.2131 77.512 12.2353 78.7182 12.2353V12.2353C79.9244 12.2353 80.9023 13.2131 80.9023 14.4194V32.3383C80.9023 33.5445 79.9244 34.5224 78.7182 34.5224H77.8594C77.1275 34.5224 76.5342 33.9291 76.5342 33.1972V31.9559ZM73.6713 31.2697C74.4977 31.2697 75.1766 31.0689 75.7078 30.6673C76.2587 30.2457 76.5342 29.6734 76.5342 28.9506V24.2824C76.5342 23.5595 76.2587 22.9973 75.7078 22.5958C75.1766 22.1741 74.4977 21.9633 73.6713 21.9633C72.8449 21.9633 72.1563 22.2645 71.6053 22.8668C71.0741 23.4491 70.8085 24.2422 70.8085 25.2461V27.9868C70.8085 28.9908 71.0741 29.7939 71.6053 30.3963C72.1563 30.9785 72.8449 31.2697 73.6713 31.2697ZM22.5341 34.5224C21.2953 34.5224 20.291 33.5181 20.291 32.2793V17.5003C20.291 15.2911 22.0819 13.5003 24.291 13.5003H31.9231C33.0459 13.5003 33.956 14.4104 33.956 15.5332V15.5332C33.956 16.656 33.0459 17.5661 31.9231 17.5661H26.9306C25.7413 17.5661 24.7772 18.5302 24.7772 19.7195V19.7195C24.7772 20.9088 25.7413 21.873 26.9306 21.873H30.5805C31.695 21.873 32.5984 22.7764 32.5984 23.8908V23.8908C32.5984 25.0053 31.695 25.9087 30.5805 25.9087H28.6878C26.528 25.9087 24.7772 27.6596 24.7772 29.8193V32.2793C24.7772 33.5181 23.7729 34.5224 22.5341 34.5224V34.5224ZM41.7694 34.8838C40.6282 34.8838 39.6051 34.693 38.7 34.3115C37.8145 33.9301 37.057 33.3779 36.4274 32.6551C35.8174 31.9323 35.3452 31.0588 35.0107 30.0348C34.6762 29.0108 34.509 27.8664 34.509 26.6014C34.509 25.3365 34.6762 24.192 35.0107 23.168C35.3452 22.144 35.8174 21.2806 36.4274 20.5779C37.057 19.8551 37.8145 19.3029 38.7 18.9214C39.6051 18.5399 40.6282 18.3492 41.7694 18.3492C42.9106 18.3492 43.9239 18.5399 44.8094 18.9214C45.7145 19.3029 46.472 19.8551 47.0819 20.5779C47.7116 21.2806 48.1936 22.144 48.5281 23.168C48.8626 24.192 49.0299 25.3365 49.0299 26.6014C49.0299 27.8664 48.8626 29.0108 48.5281 30.0348C48.1936 31.0588 47.7116 31.9323 47.0819 32.6551C46.472 33.3779 45.7145 33.9301 44.8094 34.3115C43.9239 34.693 42.9106 34.8838 41.7694 34.8838ZM41.7694 31.36C42.6352 31.36 43.3041 31.089 43.7764 30.5468C44.2486 30.0047 44.4847 29.2317 44.4847 28.2278V25.0052C44.4847 24.0013 44.2486 23.2283 43.7764 22.6861C43.3041 22.144 42.6352 21.873 41.7694 21.873C40.9037 21.873 40.2347 22.144 39.7625 22.6861C39.2902 23.2283 39.0541 24.0013 39.0541 25.0052V28.2278C39.0541 29.2317 39.2902 30.0047 39.7625 30.5468C40.2347 31.089 40.9037 31.36 41.7694 31.36ZM54.4738 34.3115C55.3789 34.693 56.4021 34.8838 57.5433 34.8838C58.6845 34.8838 59.6978 34.693 60.5832 34.3115C61.4883 33.9301 62.2459 33.3779 62.8558 32.6551C63.4855 31.9323 63.9675 31.0588 64.302 30.0348C64.6365 29.0108 64.8037 27.8664 64.8037 26.6014C64.8037 25.3365 64.6365 24.192 64.302 23.168C63.9675 22.144 63.4855 21.2806 62.8558 20.5779C62.2459 19.8551 61.4883 19.3029 60.5832 18.9214C59.6978 18.5399 58.6845 18.3492 57.5433 18.3492C56.4021 18.3492 55.3789 18.5399 54.4738 18.9214C53.5884 19.3029 52.8309 19.8551 52.2012 20.5779C51.5913 21.2806 51.1191 22.144 50.7846 23.168C50.4501 24.192 50.2828 25.3365 50.2828 26.6014C50.2828 27.8664 50.4501 29.0108 50.7846 30.0348C51.1191 31.0588 51.5913 31.9323 52.2012 32.6551C52.8309 33.3779 53.5884 33.9301 54.4738 34.3115ZM59.5503 30.5468C59.078 31.089 58.409 31.36 57.5433 31.36C56.6776 31.36 56.0086 31.089 55.5363 30.5468C55.0641 30.0047 54.828 29.2317 54.828 28.2278V25.0052C54.828 24.0013 55.0641 23.2283 55.5363 22.6861C56.0086 22.144 56.6776 21.873 57.5433 21.873C58.409 21.873 59.078 22.144 59.5503 22.6861C60.0225 23.2283 60.2586 24.0013 60.2586 25.0052V28.2278C60.2586 29.2317 60.0225 30.0047 59.5503 30.5468ZM85.1346 33.408C85.8429 34.1509 86.9447 34.5224 88.4401 34.5224H88.6858C89.6422 34.5224 90.4176 33.747 90.4176 32.7906V32.0328C90.4176 31.4949 89.9815 31.0588 89.4436 31.0588V31.0588C88.9057 31.0588 88.4696 30.6228 88.4696 30.0849V14.4193C88.4696 13.2131 87.4918 12.2353 86.2856 12.2353V12.2353C85.0794 12.2353 84.1016 13.2131 84.1016 14.4193V30.1854C84.1016 31.5909 84.4459 32.6651 85.1346 33.408Z" fill="black"/>
</svg>
